<svg width="476" height="180" viewBox="0 0 476 180" fill="none" xmlns="http://www.w3.org/2000/svg">
<g id="Group 1">
<g id="Tree">
<path id="Vector" d="M164 115.117C164 100.555 175.805 66 190.367 66C204.929 66 216.734 100.555 216.734 115.117C216.734 122.11 213.956 128.816 209.011 133.761C204.066 138.706 197.36 141.484 190.367 141.484C183.374 141.484 176.667 138.706 171.723 133.761C166.778 128.816 164 122.11 164 115.117V115.117Z" fill="#536DFE"/>
<path id="Vector_2" d="M190.367 179.265C190.338 179.265 190.31 179.259 190.284 179.248C190.258 179.237 190.234 179.221 190.214 179.201C190.193 179.181 190.177 179.157 190.167 179.131C190.156 179.104 190.15 179.076 190.15 179.048V88.1435C190.15 88.086 190.173 88.0309 190.214 87.9902C190.254 87.9495 190.309 87.9267 190.367 87.9267C190.424 87.9267 190.48 87.9495 190.52 87.9902C190.561 88.0309 190.584 88.086 190.584 88.1435V179.048C190.584 179.076 190.578 179.104 190.567 179.131C190.556 179.157 190.54 179.181 190.52 179.201C190.5 179.221 190.476 179.237 190.45 179.248C190.424 179.259 190.395 179.265 190.367 179.265V179.265Z" fill="#3F3D56"/>
<path id="Vector_3" d="M190.367 105.693C190.338 105.693 190.31 105.688 190.284 105.677C190.258 105.666 190.234 105.65 190.214 105.63L179.778 95.1938C179.757 95.1737 179.741 95.1497 179.731 95.1234C179.72 95.0971 179.714 95.069 179.714 95.0405C179.714 95.012 179.72 94.9838 179.731 94.9575C179.741 94.9312 179.757 94.9073 179.778 94.8872C179.798 94.867 179.822 94.8511 179.848 94.8402C179.874 94.8293 179.902 94.8237 179.931 94.8237C179.959 94.8237 179.988 94.8293 180.014 94.8402C180.04 94.8511 180.064 94.8671 180.084 94.8872L190.52 105.323C190.551 105.353 190.571 105.392 190.58 105.434C190.588 105.476 190.584 105.52 190.567 105.559C190.551 105.599 190.523 105.633 190.487 105.657C190.452 105.68 190.41 105.693 190.367 105.693V105.693Z" fill="#3F3D56"/>
<path id="Vector_4" d="M190.367 123.76C190.324 123.76 190.282 123.747 190.246 123.723C190.211 123.7 190.183 123.666 190.167 123.626C190.15 123.586 190.146 123.543 190.154 123.501C190.163 123.459 190.183 123.42 190.214 123.39L207.691 105.913C207.731 105.872 207.786 105.85 207.844 105.85C207.901 105.85 207.956 105.872 207.997 105.913C208.037 105.954 208.06 106.009 208.06 106.066C208.06 106.124 208.038 106.179 207.997 106.219L190.52 123.696C190.5 123.717 190.476 123.733 190.45 123.743C190.424 123.754 190.395 123.76 190.367 123.76V123.76Z" fill="#3F3D56"/>
</g>
<g id="Ferris">
<path id="Vector_5" d="M399.718 151.435C384.742 151.435 370.103 146.995 357.651 138.675C345.2 130.355 335.495 118.529 329.764 104.694C324.033 90.8581 322.533 75.6338 325.455 60.946C328.377 46.2582 335.588 32.7666 346.177 22.1772C356.767 11.5879 370.258 4.37651 384.946 1.45493C399.634 -1.46666 414.858 0.0328097 428.694 5.7637C442.529 11.4946 454.355 21.1995 462.675 33.6512C470.995 46.103 475.436 60.7422 475.436 75.7178C475.413 95.7924 467.428 115.038 453.233 129.233C439.038 143.428 419.792 151.413 399.718 151.435V151.435ZM399.718 1.01639C384.943 1.01639 370.5 5.39754 358.216 13.6058C345.931 21.8141 336.357 33.4809 330.703 47.1308C325.049 60.7807 323.569 75.8006 326.452 90.2913C329.334 104.782 336.449 118.092 346.896 128.54C357.343 138.987 370.654 146.101 385.144 148.984C399.635 151.866 414.655 150.387 428.305 144.733C441.955 139.079 453.621 129.504 461.83 117.22C470.038 104.935 474.419 90.4923 474.419 75.7178C474.397 55.9126 466.519 36.925 452.515 22.9206C438.51 8.91627 419.523 1.0388 399.718 1.01642V1.01639Z" fill="#CCCCCC"/>
<path id="Vector_6" d="M399.718 70.1278C399.583 70.1278 399.454 70.0743 399.358 69.979C399.263 69.8837 399.21 69.7544 399.21 69.6197V0.508194C399.21 0.373419 399.263 0.244165 399.358 0.148865C399.454 0.0535644 399.583 3.05176e-05 399.718 3.05176e-05C399.853 3.05176e-05 399.982 0.0535644 400.077 0.148865C400.172 0.244165 400.226 0.373419 400.226 0.508194V69.6197C400.226 69.7544 400.172 69.8837 400.077 69.979C399.982 70.0743 399.853 70.1278 399.718 70.1278V70.1278Z" fill="#CCCCCC"/>
<path id="Vector_7" d="M474.927 76.2259H405.816C405.681 76.2259 405.552 76.1724 405.457 76.0771C405.361 75.9818 405.308 75.8525 405.308 75.7177C405.308 75.583 405.361 75.4537 405.457 75.3584C405.552 75.2631 405.681 75.2096 405.816 75.2096H474.927C475.062 75.2096 475.191 75.2631 475.287 75.3584C475.382 75.4537 475.435 75.583 475.435 75.7177C475.435 75.8525 475.382 75.9818 475.287 76.0771C475.191 76.1724 475.062 76.2259 474.927 76.2259Z" fill="#CCCCCC"/>
<path id="Vector_8" d="M393.62 76.2259H324.541C324.406 76.2259 324.277 76.1724 324.182 76.0771C324.086 75.9818 324.033 75.8525 324.033 75.7177C324.033 75.583 324.086 75.4537 324.182 75.3584C324.277 75.2631 324.406 75.2096 324.541 75.2096H393.62C393.755 75.2096 393.884 75.2631 393.979 75.3584C394.074 75.4537 394.128 75.583 394.128 75.7177C394.128 75.8525 394.074 75.9818 393.979 76.0771C393.884 76.1724 393.755 76.2259 393.62 76.2259V76.2259Z" fill="#CCCCCC"/>
<path id="Vector_9" d="M399.718 151.435C399.583 151.435 399.454 151.382 399.358 151.287C399.263 151.191 399.21 151.062 399.21 150.927V81.8158C399.21 81.6811 399.263 81.5518 399.358 81.4565C399.454 81.3612 399.583 81.3076 399.718 81.3076C399.853 81.3076 399.982 81.3612 400.077 81.4565C400.172 81.5518 400.226 81.6811 400.226 81.8158V150.927C400.226 151.062 400.172 151.191 400.077 151.287C399.982 151.382 399.853 151.435 399.718 151.435V151.435Z" fill="#CCCCCC"/>
<path id="Vector_10" d="M404.198 72.0965C404.098 72.0965 404 72.0667 403.916 72.0108C403.832 71.955 403.767 71.8757 403.729 71.7828C403.69 71.69 403.68 71.5878 403.7 71.4892C403.72 71.3907 403.768 71.3001 403.839 71.2291L452.493 22.5748C452.589 22.4801 452.718 22.4271 452.852 22.4273C452.987 22.4276 453.115 22.4811 453.21 22.5761C453.306 22.6712 453.359 22.8 453.359 22.9345C453.36 23.0689 453.306 23.1979 453.212 23.2934L404.558 71.9476C404.511 71.9949 404.454 72.0324 404.393 72.058C404.331 72.0835 404.265 72.0966 404.198 72.0965V72.0965Z" fill="#CCCCCC"/>
<path id="Vector_11" d="M395.237 72.0965C395.171 72.0966 395.105 72.0835 395.043 72.058C394.981 72.0324 394.925 71.9949 394.878 71.9476L346.224 23.2934C346.129 23.1979 346.076 23.0689 346.076 22.9345C346.077 22.8 346.13 22.6712 346.225 22.5761C346.32 22.4811 346.449 22.4276 346.583 22.4273C346.718 22.4271 346.847 22.4801 346.942 22.5748L395.597 71.2291C395.668 71.3001 395.716 71.3907 395.736 71.4892C395.755 71.5878 395.745 71.69 395.707 71.7828C395.668 71.8757 395.603 71.955 395.52 72.0108C395.436 72.0667 395.338 72.0965 395.237 72.0965Z" fill="#CCCCCC"/>
<path id="Vector_12" d="M452.852 129.01C452.786 129.01 452.72 128.997 452.658 128.971C452.596 128.946 452.54 128.908 452.493 128.861L403.839 80.2064C403.744 80.111 403.691 79.9819 403.692 79.8475C403.692 79.7131 403.745 79.5843 403.84 79.4892C403.935 79.3941 404.064 79.3406 404.199 79.3404C404.333 79.3401 404.462 79.3931 404.558 79.4878L453.212 128.142C453.283 128.213 453.331 128.304 453.351 128.402C453.37 128.501 453.36 128.603 453.322 128.696C453.283 128.789 453.218 128.868 453.135 128.924C453.051 128.98 452.953 129.01 452.852 129.01V129.01Z" fill="#CCCCCC"/>
<path id="Vector_13" d="M346.583 129.01C346.483 129.01 346.384 128.98 346.301 128.924C346.217 128.868 346.152 128.789 346.114 128.696C346.075 128.603 346.065 128.501 346.085 128.402C346.104 128.304 346.153 128.213 346.224 128.142L394.878 79.4879C394.973 79.3926 395.103 79.339 395.237 79.339C395.372 79.339 395.501 79.3926 395.597 79.4879C395.692 79.5831 395.746 79.7124 395.746 79.8471C395.746 79.9819 395.692 80.1111 395.597 80.2064L346.942 128.861C346.895 128.908 346.839 128.946 346.778 128.971C346.716 128.997 346.65 129.01 346.583 129.01V129.01Z" fill="#CCCCCC"/>
<path id="Vector_14" d="M399.718 127.805C389.416 127.805 379.345 124.75 370.779 119.027C362.214 113.304 355.537 105.169 351.595 95.6508C347.653 86.133 346.621 75.6599 348.631 65.5559C350.641 55.4519 355.602 46.1708 362.886 38.8862C370.171 31.6016 379.452 26.6407 389.556 24.6309C399.66 22.6211 410.133 23.6526 419.651 27.595C429.169 31.5374 437.304 38.2136 443.027 46.7793C448.751 55.3451 451.806 65.4157 451.806 75.7177C451.79 89.5274 446.297 102.767 436.532 112.532C426.767 122.297 413.528 127.79 399.718 127.805V127.805ZM399.718 24.6464C389.617 24.6464 379.743 27.6417 371.344 33.2535C362.945 38.8653 356.399 46.8415 352.534 56.1736C348.669 65.5057 347.657 75.7744 349.628 85.6813C351.598 95.5881 356.462 104.688 363.605 111.831C370.747 118.973 379.847 123.837 389.754 125.808C399.661 127.778 409.93 126.767 419.262 122.902C428.594 119.036 436.57 112.49 442.182 104.091C447.794 95.6928 450.789 85.8187 450.789 75.7178C450.774 62.1775 445.388 49.1962 435.814 39.6218C426.239 30.0473 413.258 24.6617 399.718 24.6464V24.6464Z" fill="#CCCCCC"/>
<path id="Vector_15" d="M399.718 81.8158C403.086 81.8158 405.816 79.0856 405.816 75.7178C405.816 72.3499 403.086 69.6197 399.718 69.6197C396.35 69.6197 393.62 72.3499 393.62 75.7178C393.62 79.0856 396.35 81.8158 399.718 81.8158Z" fill="#3F3D56"/>
<path id="Vector_16" d="M376.109 178.722L370.752 178.877L396.901 73.3321L401.761 74.8151L376.109 178.722Z" fill="#3F3D56"/>
<path id="Vector_17" d="M423.326 178.722L428.683 178.877L402.534 73.3321L397.674 74.8151L423.326 178.722Z" fill="#3F3D56"/>
<path id="Vector_18" d="M407.849 15.7534H391.079V24.9005H407.849V15.7534Z" fill="#CCCCCC"/>
<path id="Vector_19" d="M398.701 17.7861H392.095V24.9005H398.701V17.7861Z" fill="white"/>
<path id="Vector_20" d="M406.832 17.7861H400.226V24.9005H406.832V17.7861Z" fill="white"/>
<path id="Vector_21" d="M399.464 34.8099C396.904 34.807 394.45 33.7888 392.64 31.9787C390.83 30.1686 389.811 27.7144 389.808 25.1546V24.9005C389.809 24.2942 390.05 23.713 390.479 23.2843C390.908 22.8555 391.489 22.6144 392.095 22.6137H406.832C407.439 22.6144 408.02 22.8555 408.448 23.2843C408.877 23.713 409.118 24.2942 409.119 24.9005V25.1546C409.116 27.7144 408.098 30.1686 406.288 31.9787C404.478 33.7888 402.024 34.807 399.464 34.8099V34.8099Z" fill="#CCCCCC"/>
<path id="Vector_22" d="M407.22 18.0402H391.707C391.49 18.0402 391.277 17.9848 391.088 17.8794C390.899 17.7739 390.74 17.6219 390.626 17.4376C390.512 17.2534 390.448 17.0431 390.438 16.8268C390.428 16.6104 390.474 16.3952 390.571 16.2015L393.62 10.1034C393.725 9.89189 393.887 9.71398 394.087 9.58987C394.288 9.46575 394.52 9.40039 394.756 9.40122H404.171C404.407 9.40039 404.639 9.46575 404.84 9.58987C405.041 9.71398 405.203 9.8919 405.308 10.1034L408.357 16.2015C408.454 16.3952 408.499 16.6104 408.49 16.8268C408.48 17.0431 408.415 17.2534 408.301 17.4376C408.187 17.6219 408.028 17.7739 407.839 17.8794C407.65 17.9848 407.437 18.0402 407.22 18.0402H407.22Z" fill="#536DFE"/>
<path id="Vector_23" d="M453.076 36.0803H436.306V45.2274H453.076V36.0803Z" fill="#CCCCCC"/>
<path id="Vector_24" d="M443.929 38.113H437.323V45.2274H443.929V38.113Z" fill="white"/>
<path id="Vector_25" d="M452.06 38.113H445.453V45.2274H452.06V38.113Z" fill="white"/>
<path id="Vector_26" d="M444.691 55.1368C442.131 55.1339 439.677 54.1157 437.867 52.3056C436.057 50.4955 435.039 48.0413 435.036 45.4815V45.2274C435.037 44.6211 435.278 44.0399 435.706 43.6112C436.135 43.1825 436.716 42.9413 437.323 42.9406H452.06C452.666 42.9413 453.247 43.1825 453.676 43.6112C454.105 44.0399 454.346 44.6211 454.346 45.2274V45.4815C454.343 48.0413 453.325 50.4955 451.515 52.3056C449.705 54.1157 447.251 55.1339 444.691 55.1368V55.1368Z" fill="#CCCCCC"/>
<path id="Vector_27" d="M439.983 30.2363C439.842 30.2358 439.703 30.2751 439.582 30.3495C439.462 30.424 439.365 30.5307 439.302 30.6576L436.253 36.7557C436.195 36.8719 436.167 37.0011 436.173 37.1309C436.179 37.2607 436.218 37.3869 436.286 37.4974C436.354 37.6079 436.45 37.6992 436.563 37.7624C436.677 37.8257 436.804 37.8589 436.934 37.8589H452.448C452.578 37.8589 452.706 37.8257 452.819 37.7624C452.933 37.6992 453.028 37.6079 453.096 37.4974C453.165 37.3869 453.204 37.2607 453.209 37.1309C453.215 37.0011 453.188 36.8719 453.13 36.7557L450.081 30.6576C450.018 30.5307 449.92 30.424 449.8 30.3495C449.679 30.2751 449.54 30.2358 449.399 30.2363H439.983Z" fill="#536DFE"/>
<path id="Vector_28" d="M470.862 81.8158H454.092V90.9629H470.862V81.8158Z" fill="#CCCCCC"/>
<path id="Vector_29" d="M461.715 83.8485H455.109V90.9629H461.715V83.8485Z" fill="white"/>
<path id="Vector_30" d="M469.846 83.8485H463.239V90.9629H469.846V83.8485Z" fill="white"/>
<path id="Vector_31" d="M462.477 100.872C459.917 100.869 457.463 99.8512 455.653 98.0411C453.843 96.231 452.825 93.7769 452.822 91.217V90.9629C452.823 90.3566 453.064 89.7754 453.492 89.3467C453.921 88.918 454.502 88.6768 455.109 88.6761H469.846C470.452 88.6768 471.033 88.918 471.462 89.3467C471.891 89.7754 472.132 90.3566 472.132 90.9629V91.217C472.13 93.7769 471.111 96.231 469.301 98.0411C467.491 99.8512 465.037 100.869 462.477 100.872V100.872Z" fill="#CCCCCC"/>
<path id="Vector_32" d="M470.234 84.1026H454.72C454.504 84.1026 454.291 84.0473 454.102 83.9418C453.913 83.8364 453.754 83.6843 453.64 83.5001C453.526 83.3158 453.461 83.1056 453.451 82.8892C453.442 82.6729 453.487 82.4576 453.584 82.2639L456.633 76.1659C456.738 75.9543 456.9 75.7764 457.101 75.6523C457.302 75.5282 457.533 75.4628 457.769 75.4637H467.185C467.421 75.4628 467.652 75.5282 467.853 75.6523C468.054 75.7764 468.216 75.9543 468.321 76.1659L471.37 82.2639C471.467 82.4576 471.513 82.6729 471.503 82.8892C471.493 83.1056 471.428 83.3158 471.315 83.5001C471.201 83.6843 471.042 83.8364 470.852 83.9418C470.663 84.0473 470.45 84.1026 470.234 84.1026H470.234Z" fill="#536DFE"/>
<path id="Vector_33" d="M452.06 124.502H435.29V133.649H452.06V124.502Z" fill="#CCCCCC"/>
<path id="Vector_34" d="M442.912 126.535H436.306V133.649H442.912V126.535Z" fill="white"/>
<path id="Vector_35" d="M451.043 126.535H444.437V133.649H451.043V126.535Z" fill="white"/>
<path id="Vector_36" d="M443.675 143.559C441.115 143.556 438.661 142.538 436.851 140.728C435.041 138.918 434.022 136.463 434.019 133.904V133.649C434.02 133.043 434.261 132.462 434.69 132.033C435.119 131.604 435.7 131.363 436.306 131.363H451.043C451.65 131.363 452.231 131.604 452.659 132.033C453.088 132.462 453.329 133.043 453.33 133.649V133.904C453.327 136.463 452.309 138.918 450.499 140.728C448.689 142.538 446.235 143.556 443.675 143.559V143.559Z" fill="#CCCCCC"/>
<path id="Vector_37" d="M451.431 126.789H435.918C435.702 126.789 435.489 126.734 435.299 126.628C435.11 126.523 434.951 126.371 434.837 126.187C434.723 126.002 434.659 125.792 434.649 125.576C434.639 125.359 434.685 125.144 434.782 124.95L437.831 118.852C437.936 118.641 438.098 118.463 438.299 118.339C438.499 118.215 438.731 118.149 438.967 118.15H448.382C448.618 118.149 448.85 118.215 449.051 118.339C449.252 118.463 449.414 118.641 449.519 118.852L452.568 124.95C452.665 125.144 452.71 125.359 452.701 125.576C452.691 125.792 452.626 126.002 452.512 126.187C452.398 126.371 452.239 126.523 452.05 126.628C451.861 126.734 451.648 126.789 451.431 126.789H451.431Z" fill="#536DFE"/>
<path id="Vector_38" d="M346.36 45.2274H363.129V36.0803H346.36V45.2274Z" fill="#CCCCCC"/>
<path id="Vector_39" d="M355.507 45.2274H362.113V38.113H355.507V45.2274Z" fill="white"/>
<path id="Vector_40" d="M347.376 45.2274H353.982V38.113H347.376V45.2274Z" fill="white"/>
<path id="Vector_41" d="M354.745 55.1368C352.185 55.1339 349.731 54.1157 347.92 52.3056C346.11 50.4955 345.092 48.0413 345.089 45.4815V45.2274C345.09 44.6211 345.331 44.0399 345.76 43.6112C346.189 43.1825 346.77 42.9413 347.376 42.9406H362.113C362.719 42.9413 363.301 43.1825 363.729 43.6112C364.158 44.0399 364.399 44.6211 364.4 45.2274V45.4815C364.397 48.0413 363.379 50.4955 361.569 52.3056C359.759 54.1157 357.304 55.1339 354.745 55.1368V55.1368Z" fill="#CCCCCC"/>
<path id="Vector_42" d="M362.501 38.3671H346.988C346.771 38.3671 346.558 38.3117 346.369 38.2063C346.18 38.1008 346.021 37.9488 345.907 37.7645C345.793 37.5803 345.728 37.37 345.719 37.1537C345.709 36.9373 345.755 36.7221 345.852 36.5284L348.901 30.4303C349.005 30.2188 349.167 30.0409 349.368 29.9168C349.569 29.7927 349.801 29.7273 350.037 29.7281H359.452C359.688 29.7273 359.92 29.7926 360.121 29.9168C360.322 30.0409 360.484 30.2188 360.588 30.4303L363.638 36.5284C363.734 36.7221 363.78 36.9373 363.77 37.1537C363.761 37.37 363.696 37.5803 363.582 37.7645C363.468 37.9488 363.309 38.1008 363.12 38.2063C362.931 38.3117 362.718 38.3671 362.501 38.3671H362.501Z" fill="#536DFE"/>
<path id="Vector_43" d="M328.574 90.9629H345.343V81.8158H328.574V90.9629Z" fill="#CCCCCC"/>
<path id="Vector_44" d="M337.721 90.9629H344.327V83.8485H337.721V90.9629Z" fill="white"/>
<path id="Vector_45" d="M329.59 90.9629H336.196V83.8485H329.59V90.9629Z" fill="white"/>
<path id="Vector_46" d="M336.958 100.872C334.399 100.869 331.944 99.8512 330.134 98.0411C328.324 96.231 327.306 93.7769 327.303 91.217V90.9629C327.304 90.3566 327.545 89.7754 327.974 89.3467C328.402 88.918 328.984 88.6768 329.59 88.6761H344.327C344.933 88.6768 345.515 88.918 345.943 89.3467C346.372 89.7754 346.613 90.3566 346.614 90.9629V91.217C346.611 93.7769 345.593 96.231 343.783 98.0411C341.973 99.8512 339.518 100.869 336.958 100.872Z" fill="#CCCCCC"/>
<path id="Vector_47" d="M344.715 84.1026H329.202C328.985 84.1026 328.772 84.0473 328.583 83.9418C328.394 83.8364 328.235 83.6843 328.121 83.5001C328.007 83.3158 327.942 83.1056 327.933 82.8892C327.923 82.6729 327.969 82.4576 328.065 82.2639L331.115 76.1659C331.219 75.9543 331.381 75.7764 331.582 75.6523C331.783 75.5282 332.015 75.4628 332.251 75.4637H341.666C341.902 75.4628 342.134 75.5282 342.335 75.6523C342.536 75.7764 342.698 75.9543 342.802 76.1659L345.851 82.2639C345.948 82.4576 345.994 82.6729 345.984 82.8892C345.975 83.1056 345.91 83.3158 345.796 83.5001C345.682 83.6843 345.523 83.8364 345.334 83.9418C345.145 84.0473 344.932 84.1026 344.715 84.1026H344.715Z" fill="#536DFE"/>
<path id="Vector_48" d="M347.376 133.649H364.146V124.502H347.376V133.649Z" fill="#CCCCCC"/>
<path id="Vector_49" d="M356.523 133.649H363.129V126.535H356.523V133.649Z" fill="white"/>
<path id="Vector_50" d="M348.392 133.649H354.999V126.535H348.392V133.649Z" fill="white"/>
<path id="Vector_51" d="M355.761 143.559C353.201 143.556 350.747 142.538 348.937 140.728C347.127 138.918 346.109 136.463 346.106 133.904V133.649C346.106 133.043 346.347 132.462 346.776 132.033C347.205 131.604 347.786 131.363 348.392 131.363H363.129C363.736 131.363 364.317 131.604 364.746 132.033C365.174 132.462 365.416 133.043 365.416 133.649V133.904C365.413 136.463 364.395 138.918 362.585 140.728C360.775 142.538 358.321 143.556 355.761 143.559V143.559Z" fill="#CCCCCC"/>
<path id="Vector_52" d="M363.518 126.789H348.004C347.788 126.789 347.575 126.734 347.385 126.628C347.196 126.523 347.037 126.371 346.923 126.187C346.81 126.002 346.745 125.792 346.735 125.576C346.725 125.359 346.771 125.144 346.868 124.95L349.917 118.852C350.022 118.641 350.184 118.463 350.385 118.339C350.585 118.215 350.817 118.149 351.053 118.15H360.469C360.705 118.149 360.936 118.215 361.137 118.339C361.338 118.463 361.5 118.641 361.605 118.852L364.654 124.95C364.751 125.144 364.796 125.359 364.787 125.576C364.777 125.792 364.712 126.002 364.598 126.187C364.484 126.371 364.325 126.523 364.136 126.628C363.947 126.734 363.734 126.789 363.518 126.789H363.518Z" fill="#536DFE"/>
<path id="Vector_53" d="M407.849 143.813H391.079V152.96H407.849V143.813Z" fill="#CCCCCC"/>
<path id="Vector_54" d="M398.701 145.846H392.095V152.96H398.701V145.846Z" fill="white"/>
<path id="Vector_55" d="M406.832 145.846H400.226V152.96H406.832V145.846Z" fill="white"/>
<path id="Vector_56" d="M392.095 151.181C391.624 151.182 391.172 151.37 390.838 151.703C390.505 152.036 390.317 152.488 390.317 152.96V153.214C390.315 154.416 390.551 155.607 391.01 156.717C391.469 157.828 392.143 158.838 392.992 159.688C393.842 160.539 394.851 161.213 395.961 161.674C397.072 162.134 398.262 162.371 399.464 162.371C400.666 162.371 401.856 162.134 402.966 161.674C404.077 161.213 405.086 160.539 405.935 159.688C406.785 158.838 407.458 157.828 407.917 156.717C408.376 155.607 408.612 154.416 408.611 153.214V152.96C408.61 152.488 408.423 152.036 408.089 151.703C407.756 151.37 407.304 151.182 406.832 151.181H392.095Z" fill="#CCCCCC"/>
<path id="Vector_57" d="M394.756 137.969C394.614 137.968 394.475 138.008 394.355 138.082C394.234 138.157 394.137 138.263 394.074 138.39L391.025 144.488C390.967 144.604 390.94 144.734 390.946 144.863C390.951 144.993 390.99 145.119 391.059 145.23C391.127 145.341 391.222 145.432 391.336 145.495C391.449 145.558 391.577 145.592 391.707 145.591H407.22C407.35 145.592 407.478 145.558 407.592 145.495C407.705 145.432 407.801 145.341 407.869 145.23C407.937 145.119 407.976 144.993 407.982 144.863C407.988 144.734 407.96 144.604 407.902 144.488L404.853 138.39C404.79 138.263 404.693 138.157 404.573 138.082C404.452 138.008 404.313 137.968 404.171 137.969H394.756Z" fill="#536DFE"/>
</g>
<g id="Building">
<path id="Vector_58" d="M29.9876 47.9051H23.8973C23.4432 47.9046 23.0078 47.724 22.6867 47.4028C22.3656 47.0817 22.1849 46.6463 22.1844 46.1922V32.1084C22.185 31.6543 22.3656 31.2189 22.6867 30.8978C23.0078 30.5766 23.4432 30.396 23.8973 30.3955H29.9876C30.4417 30.396 30.8771 30.5766 31.1982 30.8978C31.5194 31.2189 31.7 31.6543 31.7005 32.1084V46.1922C31.7 46.6463 31.5194 47.0817 31.1982 47.4028C30.8771 47.724 30.4417 47.9046 29.9876 47.9051V47.9051Z" fill="#3F3D56"/>
<path id="Vector_59" d="M53.968 179.227H22.7554C21.8976 179.226 21.0752 178.885 20.4686 178.278C19.8621 177.671 19.5209 176.849 19.5199 175.991V49.9986C19.5209 49.1408 19.8621 48.3184 20.4686 47.7119C21.0752 47.1053 21.8976 46.7641 22.7554 46.7632H53.968C54.8259 46.7641 55.6483 47.1053 56.2548 47.7119C56.8614 48.3184 57.2026 49.1408 57.2035 49.9986V175.991C57.2026 176.849 56.8614 177.671 56.2548 178.278C55.6483 178.885 54.8259 179.226 53.968 179.227V179.227Z" fill="#3F3D56"/>
<path id="Vector_60" d="M35.3166 179.227H4.10391C3.24611 179.226 2.42373 178.885 1.81717 178.278C1.21061 177.671 0.869433 176.849 0.868469 175.991V49.9986C0.869433 49.1408 1.21061 48.3184 1.81717 47.7119C2.42373 47.1053 3.24611 46.7641 4.10391 46.7632H35.3166C36.1744 46.7641 36.9968 47.1053 37.6034 47.7119C38.2099 48.3184 38.5511 49.1408 38.5521 49.9986V175.991C38.5511 176.849 38.2099 177.671 37.6034 178.278C36.9968 178.885 36.1744 179.226 35.3166 179.227V179.227Z" fill="#536DFE"/>
<path id="Vector_61" d="M24.278 47.9051H18.1877C17.7335 47.9046 17.2982 47.724 16.9771 47.4028C16.6559 47.0817 16.4753 46.6463 16.4748 46.1922V32.1084C16.4753 31.6543 16.6559 31.2189 16.9771 30.8978C17.2982 30.5766 17.7336 30.396 18.1877 30.3955H24.278C24.7321 30.396 25.1675 30.5766 25.4886 30.8978C25.8097 31.2189 25.9904 31.6543 25.9909 32.1084V46.1922C25.9904 46.6463 25.8097 47.0817 25.4886 47.4028C25.1675 47.724 24.7321 47.9046 24.278 47.9051Z" fill="#536DFE"/>
<path id="Vector_62" d="M16.2845 75.3113H9.05225C8.79995 75.3111 8.55807 75.2107 8.37967 75.0323C8.20127 74.8539 8.10094 74.612 8.10065 74.3597V63.3211C8.10093 63.0688 8.20127 62.8269 8.37967 62.6485C8.55807 62.4701 8.79995 62.3698 9.05225 62.3695H16.2845C16.5367 62.3698 16.7786 62.4701 16.957 62.6485C17.1354 62.8269 17.2358 63.0688 17.2361 63.3211V74.3597C17.2358 74.612 17.1354 74.8539 16.957 75.0323C16.7786 75.2107 16.5367 75.3111 16.2845 75.3113V75.3113Z" fill="white"/>
<path id="Vector_63" d="M30.3682 75.3113H23.136C22.8837 75.3111 22.6418 75.2107 22.4634 75.0323C22.285 74.8539 22.1847 74.612 22.1844 74.3597V63.3211C22.1847 63.0688 22.285 62.8269 22.4634 62.6485C22.6418 62.4701 22.8837 62.3698 23.136 62.3695H30.3682C30.6205 62.3698 30.8624 62.4701 31.0408 62.6485C31.2192 62.8269 31.3195 63.0688 31.3198 63.3211V74.3597C31.3195 74.612 31.2192 74.8539 31.0408 75.0323C30.8624 75.2107 30.6205 75.311 30.3682 75.3113V75.3113Z" fill="white"/>
<path id="Vector_64" d="M16.2845 95.4854H9.05225C8.79995 95.4851 8.55807 95.3847 8.37967 95.2063C8.20127 95.0279 8.10094 94.7861 8.10065 94.5338V83.4951C8.10093 83.2429 8.20127 83.001 8.37967 82.8226C8.55807 82.6442 8.79995 82.5438 9.05225 82.5435H16.2845C16.5367 82.5438 16.7786 82.6442 16.957 82.8226C17.1354 83.001 17.2358 83.2429 17.2361 83.4951V94.5338C17.2358 94.7861 17.1354 95.0279 16.957 95.2063C16.7786 95.3847 16.5367 95.4851 16.2845 95.4854V95.4854Z" fill="white"/>
<path id="Vector_65" d="M30.3682 95.4854H23.136C22.8837 95.4851 22.6418 95.3847 22.4634 95.2063C22.285 95.0279 22.1847 94.7861 22.1844 94.5338V83.4951C22.1847 83.2429 22.285 83.001 22.4634 82.8226C22.6418 82.6442 22.8837 82.5438 23.136 82.5435H30.3682C30.6205 82.5438 30.8624 82.6442 31.0408 82.8226C31.2192 83.001 31.3195 83.2429 31.3198 83.4951V94.5338C31.3195 94.7861 31.2192 95.0279 31.0408 95.2063C30.8624 95.3847 30.6205 95.4851 30.3682 95.4854V95.4854Z" fill="white"/>
<path id="Vector_66" d="M16.2845 115.659H9.05225C8.79995 115.659 8.55807 115.559 8.37967 115.38C8.20127 115.202 8.10093 114.96 8.10065 114.708V103.669C8.10094 103.417 8.20127 103.175 8.37967 102.997C8.55807 102.818 8.79995 102.718 9.05225 102.718H16.2845C16.5367 102.718 16.7786 102.818 16.957 102.997C17.1354 103.175 17.2358 103.417 17.2361 103.669V114.708C17.2358 114.96 17.1354 115.202 16.957 115.38C16.7786 115.559 16.5367 115.659 16.2845 115.659V115.659Z" fill="white"/>
<path id="Vector_67" d="M30.3682 115.659H23.136C22.8837 115.659 22.6418 115.559 22.4634 115.38C22.285 115.202 22.1847 114.96 22.1844 114.708V103.669C22.1847 103.417 22.285 103.175 22.4634 102.997C22.6418 102.818 22.8837 102.718 23.136 102.718H30.3682C30.6205 102.718 30.8624 102.818 31.0408 102.997C31.2192 103.175 31.3195 103.417 31.3198 103.669V114.708C31.3195 114.96 31.2192 115.202 31.0408 115.38C30.8624 115.559 30.6205 115.659 30.3682 115.659Z" fill="white"/>
<path id="Vector_68" d="M16.2845 135.833H9.05225C8.79995 135.833 8.55807 135.733 8.37967 135.554C8.20127 135.376 8.10093 135.134 8.10065 134.882V123.843C8.10094 123.591 8.20127 123.349 8.37967 123.171C8.55807 122.992 8.79995 122.892 9.05225 122.892H16.2845C16.5367 122.892 16.7786 122.992 16.957 123.171C17.1354 123.349 17.2358 123.591 17.2361 123.843V134.882C17.2358 135.134 17.1354 135.376 16.957 135.554C16.7786 135.733 16.5367 135.833 16.2845 135.833V135.833Z" fill="white"/>
<path id="Vector_69" d="M30.3682 135.833H23.136C22.8837 135.833 22.6418 135.733 22.4634 135.554C22.285 135.376 22.1847 135.134 22.1844 134.882V123.843C22.1847 123.591 22.285 123.349 22.4634 123.171C22.6418 122.992 22.8837 122.892 23.136 122.892H30.3682C30.6205 122.892 30.8624 122.992 31.0408 123.171C31.2192 123.349 31.3195 123.591 31.3198 123.843V134.882C31.3195 135.134 31.2192 135.376 31.0408 135.554C30.8624 135.733 30.6205 135.833 30.3682 135.833Z" fill="white"/>
<path id="Vector_70" d="M16.2845 156.008H9.05225C8.79995 156.007 8.55807 155.907 8.37967 155.729C8.20127 155.55 8.10094 155.308 8.10065 155.056V144.017C8.10094 143.765 8.20127 143.523 8.37967 143.345C8.55807 143.166 8.79995 143.066 9.05225 143.066H16.2845C16.5367 143.066 16.7786 143.166 16.957 143.345C17.1354 143.523 17.2358 143.765 17.2361 144.017V155.056C17.2358 155.308 17.1354 155.55 16.957 155.729C16.7786 155.907 16.5367 156.007 16.2845 156.008Z" fill="white"/>
<path id="Vector_71" d="M30.3682 156.008H23.136C22.8837 156.007 22.6418 155.907 22.4634 155.729C22.285 155.55 22.1847 155.308 22.1844 155.056V144.017C22.1847 143.765 22.285 143.523 22.4634 143.345C22.6418 143.166 22.8837 143.066 23.136 143.066H30.3682C30.6205 143.066 30.8624 143.166 31.0408 143.345C31.2192 143.523 31.3195 143.765 31.3198 144.017V155.056C31.3195 155.308 31.2192 155.55 31.0408 155.729C30.8624 155.907 30.6205 156.007 30.3682 156.008Z" fill="white"/>
</g>
</g>
</svg>
